<svg xmlns="http://www.w3.org/2000/svg" viewBox="0 0 200 200">
  <path fill="#F0F0F0" d="M34.6,-55.2C45.9,-45.4,54.2,-34.8,60.4,-23C66.6,-11.1,70.7,1.9,67.5,12.4C64.4,22.9,53.9,30.9,44.8,38.4C35.8,45.9,28.2,52.9,19.8,57.8C11.4,62.6,2.2,65.3,-7.4,67.3C-16.9,69.4,-27,70.7,-38.6,66.8C-50.2,63,-63.2,53.9,-67.6,42.4C-72.1,30.9,-67.9,17,-66.6,3.8C-65.3,-9.4,-66.9,-23.2,-63.1,-34.7C-59.3,-46.3,-49.9,-55.6,-38.1,-64.3C-26.4,-73,-13.2,-81.2,-0.8,-79.7C11.5,-78.3,23.1,-67.2,34.6,-55.2Z" transform="translate(100 100)" />
</svg>
